Coordinates
version=1
nRows=15
nColumns=33
inDegrees=yes

Units are S.I. units (second, meters, Newtons, ...)
Angles are in degrees.

endheader
time	ground_thorax_rot_x	ground_thorax_rot_y	ground_thorax_rot_z	ground_thorax_tx	ground_thorax_ty	ground_thorax_tz	clav_prot_r	clav_elev_r	scapula_abduction_r	scapula_elevation_r	scapula_upward_rot_r	scapula_winging_r	shoulder_elv_r	plane_of_elev_r	axial_rot_r	elbow_flexion_r	pro_sup_r	wrist_flex_r	wrist_dev_r	clav_prot_l	clav_elev_l	scapula_abduction_l	scapula_elevation_l	scapula_upward_rot_l	scapula_winging_l	shoulder_elv_l	plane_of_elev_l	axial_rot_l	elbow_flexion_l	pro_sup_l	wrist_flex_l	wrist_dev_l	
1.6000	1.909850	6.106493	-4.020535	-0.148972	1.005803	0.010686	-20.323233	-8.708257	-27.277814	-4.694671	8.121058	2.350295	68.252026	-50.623261	59.904081	86.976052	21.426323	29.585775	-11.871455	-1.136800	0.287713	-1.731882	-6.001147	0.409881	1.468111	41.222441	-55.225587	-21.848333	82.015706	16.049576	-10.565501	-24.999789	
1.6100	1.898995	6.113885	-4.002072	-0.148888	1.005711	0.010673	-20.321040	-8.712002	-27.270368	-4.699766	8.126515	2.351142	68.250184	-50.617949	59.903088	86.980334	21.425809	29.581495	-11.870965	-1.136808	0.279763	-1.736350	-5.991592	0.415609	1.469225	41.227153	-55.206900	-21.844812	82.021083	16.047994	-10.569984	-24.999622	
1.6200	1.885298	6.124062	-3.979167	-0.148845	1.005642	0.010650	-20.317907	-8.717026	-27.259971	-4.706715	8.133677	2.352141	68.247747	-50.610509	59.901585	86.985914	21.424850	29.575592	-11.870155	-1.136963	0.269580	-1.742432	-5.978951	0.423681	1.471253	41.234433	-55.181954	-21.839930	82.029387	16.045681	-10.575752	-24.999324	
1.6300	1.872558	6.135686	-3.957584	-0.148800	1.005578	0.010628	-20.313986	-8.723160	-27.247650	-4.714803	8.141187	2.353520	68.244427	-50.602079	59.899743	86.991691	21.423145	29.568159	-11.868793	-1.136886	0.259103	-1.749645	-5.965636	0.433111	1.473435	41.244353	-55.154457	-21.834512	82.040844	16.042585	-10.581732	-24.998787	
1.6400	1.859203	6.150742	-3.935642	-0.148783	1.005532	0.010600	-20.308473	-8.731653	-27.231216	-4.725587	8.150358	2.355499	68.239074	-50.591891	59.897565	86.998677	21.420211	29.556931	-11.866369	-1.136352	0.246829	-1.759412	-5.949560	0.444982	1.476465	41.259169	-55.119110	-21.827764	82.058708	16.037851	-10.589366	-24.997831	
1.6500	1.846258	6.169135	-3.917041	-0.148780	1.005497	0.010572	-20.301446	-8.743369	-27.210751	-4.739893	8.161513	2.358258	68.230148	-50.581812	59.894892	87.006991	21.415127	29.539015	-11.862097	-1.134687	0.232916	-1.772032	-5.931561	0.457623	1.480158	41.280242	-55.075188	-21.820301	82.085158	16.030448	-10.599058	-24.996103	
1.6600	1.832859	6.193323	-3.907137	-0.148805	1.005469	0.010536	-20.291906	-8.760441	-27.182925	-4.760236	8.176236	2.362448	68.214706	-50.572521	59.892072	87.017798	21.406418	29.508833	-11.854462	-1.130716	0.215808	-1.789981	-5.910429	0.470548	1.485030	41.311404	-55.015287	-21.812196	82.128116	16.018400	-10.613242	-24.993053	
1.6700	1.819428	6.221581	-3.908349	-0.148834	1.005442	0.010500	-20.282455	-8.785209	-27.150238	-4.789774	8.197340	2.368352	68.189569	-50.570249	59.885292	87.032221	21.390645	29.457857	-11.841449	-1.123251	0.195353	-1.812672	-5.888426	0.477998	1.489749	41.356293	-54.939779	-21.804851	82.188397	15.998514	-10.631679	-24.987465	
1.6800	1.805610	6.253064	-3.918852	-0.148869	1.005417	0.010466	-20.274897	-8.819037	-27.113700	-4.830707	8.227219	2.376075	68.152549	-50.577881	59.871195	87.051769	21.364122	29.380168	-11.819913	-1.111958	0.170736	-1.839804	-5.866000	0.477451	1.493624	41.417618	-54.847624	-21.798761	82.267147	15.968185	-10.653237	-24.977801	
1.6900	1.787747	6.290650	-3.944469	-0.148894	1.005399	0.010442	-20.276473	-8.872871	-27.076363	-4.897763	8.277818	2.387263	68.089434	-50.616504	59.836085	87.081122	21.313832	29.239191	-11.782445	-1.092661	0.137534	-1.871415	-5.846653	0.450327	1.492769	41.516080	-54.730524	-21.796004	82.369881	15.913654	-10.679504	-24.959522	
1.7000	1.766434	6.332149	-3.977921	-0.148923	1.005391	0.010426	-20.285835	-8.941281	-27.038118	-4.985147	8.346854	2.400259	68.002707	-50.679186	59.780884	87.120670	21.235327	29.041719	-11.720092	-1.067631	0.096447	-1.905857	-5.828744	0.402211	1.487837	41.645341	-54.591579	-21.796230	82.495300	15.835902	-10.704087	-24.929484	
1.7100	1.743356	6.374527	-4.009090	-0.148952	1.005396	0.010420	-20.302828	-9.018699	-27.001426	-5.086978	8.432252	2.413103	67.894727	-50.760116	59.704365	87.170446	21.122169	28.793976	-11.621871	-1.039509	0.049165	-1.939234	-5.812344	0.336324	1.478553	41.797788	-54.439128	-21.799671	82.637364	15.735465	-10.717994	-24.883396	
1.7200	1.725428	6.410400	-4.026198	-0.148990	1.005396	0.010422	-20.320541	-9.085393	-26.964711	-5.181100	8.523833	2.419908	67.774586	-50.832666	59.612271	87.229808	20.958199	28.522412	-11.454041	-1.015460	0.001209	-1.966166	-5.794540	0.272387	1.467764	41.947962	-54.286503	-21.806603	82.796710	15.617055	-10.698793	-24.809210	
1.7300	1.712844	6.440443	-4.029124	-0.149041	1.005393	0.010426	-20.337809	-9.139700	-26.926175	-5.266151	8.622078	2.419725	67.637320	-50.893377	59.500904	87.295551	20.727020	28.218833	-11.193594	-0.996175	-0.048485	-1.985676	-5.774280	0.210386	1.455028	42.096407	-54.132819	-21.816727	82.973576	15.475979	-10.637454	-24.696541	
1.7400	1.712240	6.460739	-4.021799	-0.149103	1.005365	0.010443	-20.349821	-9.162053	-26.879261	-5.325289	8.731430	2.403284	67.451625	-50.928923	59.350844	87.354047	20.314708	27.826363	-10.679925	-0.986116	-0.103112	-1.990611	-5.748660	0.150532	1.437718	42.245235	-53.975282	-21.834802	83.182140	15.280101	-10.475042	-24.482634	
